<?xml version="1.0" encoding="UTF-8"?>
<svg version="1.1" viewBox="0 0 93 40" xmlns="http://www.w3.org/2000/svg" xmlns:xlink="http://www.w3.org/1999/xlink">
<title>Logos / Zap negative Copy</title>
<desc>Created with Sketch.</desc>
<defs>
<polygon id="b" points="0.12614 0.37545 22.922 0.37545 22.922 28.085 0.12614 28.085"/>
<polygon id="a" points="0 0.3617 29.777 0.3617 29.777 35.482 0 35.482"/>
</defs>
<g fill="none" fill-rule="evenodd">
<g transform="translate(-120 -168)">
<g transform="translate(80 152)">
<g transform="translate(40 16)">
<path d="m49.173 12.521h-15.284c-0.41515 1.7489-0.68404 3.4664-1.094 5.2158h6.365l-9.6423 12.032-0.14713 0.70596h16.003l1.2016-5.6217h-6.9255l9.3752-11.621 0.14799-0.71064z" fill="#fff"/>
<path d="m61.826 21.313c-0.6023 2.2324-1.8435 3.8741-3.7686 3.8741-2.1063 0.035745-2.8226-1.4149-2.2569-3.7962 0.79159-2.6856 2.5228-4.1392 4.7835-4.2519 0.71458-0.036596 1.427 0.075745 2.2203 0.26256l-0.9783 3.9115zm5.4959 3.4264l2.3722-10.987c-2.259-1.0068-4.8932-1.6034-7.607-1.6404-6.1361-0.11277-11.109 2.9447-12.608 9.1256-1.0979 5.1775 0.48528 9.4247 6.1331 9.535 2.1455 0 4.5176-1.0421 5.9115-3.0149-0.71501 3.6485 4.1447 3.1651 6.513 2.6783l0.71759-3.4281c-1.6189 0-1.7329-0.81618-1.4322-2.2681z" fill="#fff"/>
<g transform="translate(69.264 11.553)">
<mask id="d" fill="white">
<use xlink:href="#b"/>
</mask>
<path d="m16.769 8.753c-0.11272 2.6838-1.7316 5.1375-4.5529 5.1375-1.47 0-2.1472-1.2626-2.0353-2.9064 0.11229-2.526 1.5802-5.0975 4.1021-5.0975 1.8469-0.11277 2.6015 1.1192 2.4862 2.8664m-0.37557-8.3775c-2.1106 0-4.3675 1.0758-5.7627 2.9792l0.039579-0.14979c0.7903-3.3524-3.8784-2.7941-6.18-2.3115l-0.74814 3.4651c1.581 0 1.3169 0.70809 1.0153 2.083l-4.6317 21.644h5.9507l2.4496-11.362c0.37471 1.8626 2.4075 2.4958 4.2909 2.4958 5.3458 0 8.8843-4.5447 9.9052-9.3107 0.78815-4.6571-0.64274-9.4243-6.3288-9.5328" fill="#fff" mask="url(#d)"/>
</g>
<g transform="translate(0 .064)">
<mask id="c" fill="white">
<use xlink:href="#a"/>
</mask>
<path d="m23.498 33.617c-0.83504 0.75235-1.6886 1.1341-2.5339 1.1341h-8.605e-4c-1.3164 0-2.2031-0.90213-2.4432-1.1792-0.15057-0.17319-0.39192-0.49788-0.69866-0.90724-1.1904-1.5936-3.1814-4.2609-4.7224-4.8434-0.2934-0.11021-0.62122-0.16681-0.97314-0.16681-0.17682 0-0.35837 0.01617-0.54207 0.042554-0.13724-1.9051-0.44785-3.2715-0.95378-4.1541-1.1805-2.0404-4.2845-2.9111-7.2065-3.4847-0.29857-0.45958-0.64403-0.88937-0.98776-1.3098l-0.12949-0.15915c-0.45559-0.56213-0.92667-1.1421-1.2635-1.7672-0.14455-0.27021-0.24049-0.52851-0.28437-0.76554-0.039149-0.22085-0.018929-0.54979 0.047323-0.77915 0.26716-0.91277 1.0914-1.4251 2.136-1.3413 1.0037 0.084681 2.0857 0.63532 3.2175 1.6379 0.28523 0.25021 0.56874 0.52766 0.85741 0.81107 1.1405 1.1132 2.4328 2.3758 4.2036 2.3758 0.23748 0 0.48012-0.023404 0.72275-0.068511 2.3687-0.44766 3.0377-3.3809 3.8143-6.7758 0.92409-4.0477 1.9717-8.6354 6.066-10.322 1.3255-0.54596 2.654-0.65192 3.7962-0.29277 1.1543 0.36256 2.1115 1.2485 2.6927 2.4915 1.0183 2.1962 0.94431 5.1694-0.1837 7.3996-0.085612 0.16979-0.18327 0.34085-0.28609 0.51234-0.35578 0.06383-0.71286 0.12553-1.076 0.18638-3.6133 0.61234-7.7072 1.3055-9.5098 5.1609-1.9768 4.2417 2.096 8.7711 6.8124 14.015l0.46807 0.52085c-0.11142 0.80128-0.45645 1.5009-1.039 2.0285m5.2916-22.098c1.242-2.4553 1.3173-5.6073 0.19403-8.0315-0.6707-1.4336-1.7858-2.457-3.1405-2.8821-1.3087-0.41192-2.8175-0.29915-4.3043 0.31447-4.4467 1.8307-5.5863 6.823-6.5026 10.835-0.71845 3.1451-1.3392 5.8605-3.2313 6.2183-0.19704 0.037873-0.39364 0.055745-0.58466 0.055745-1.467 0-2.5942-1.1009-3.6835-2.1651-0.29814-0.29149-0.5924-0.57788-0.88537-0.83618-1.2532-1.1098-2.4802-1.7221-3.646-1.8204-1.4042-0.12213-2.5443 0.62043-2.9099 1.8672-0.098088 0.34128-0.12347 0.77618-0.064532 1.1111 0.058078 0.31234 0.17897 0.64171 0.35966 0.98001 0.37084 0.68511 0.863 1.2923 1.3504 1.8932l0.12046 0.14766c0.35492 0.43532 0.69952 0.86086 0.98088 1.3055l0.04044 0.063405c0.080019 0.12894 0.15143 0.25575 0.21511 0.38213 0.0047323 0.0085107 0.008174 0.018298 0.012046 0.025958 0.058509 0.11575 0.1097 0.23107 0.15445 0.34511 0.015057 0.041702 0.027534 0.084681 0.042161 0.12553 0.028824 0.083405 0.058509 0.16681 0.08174 0.25064 0.033126 0.12553 0.06066 0.25404 0.080019 0.38553 0.16133 1.1621-0.47151 2.2749-1.2024 3.4251-0.65177 1.0328-1.4627 2.3179-1.4098 3.7085 0.070555 1.7336 1.1547 2.4864 2.2126 2.6468 0.15445 0.02383 0.30846 0.035745 0.45774 0.035745 0.049044 0 0.094216-0.0012766 0.13724-0.0029788h4.3021e-4c0.027103-0.0017021 0.055067-0.0089362 0.08174-0.011915 0.49991-0.048937 1.0738-0.25277 1.695-0.54468 0.62897-0.29404 1.3044-0.67447 1.9996-1.0668 0.2577-0.14553 0.51797-0.29021 0.77782-0.43405 0.10583-0.058298 0.21295-0.11745 0.32051-0.17575 0.067973-0.03617 0.13552-0.071915 0.20306-0.10894 0.14713-0.077022 0.29426-0.15447 0.4414-0.22851 0.038289-0.019575 0.077008-0.04 0.11659-0.059149 0.39493-0.19617 0.78729-0.37532 1.1672-0.51958 0.013336-0.0051064 0.026243-0.0089362 0.039579-0.014043 0.16305-0.060852 0.32352-0.11447 0.48098-0.16128 0.053346-0.01617 0.10497-0.029362 0.15789-0.043405 0.34503-0.092767 0.67586-0.15064 0.98045-0.15064 0.262 0 0.50077 0.039575 0.70985 0.11787 1.3388 0.50724 3.3242 3.1664 4.3912 4.5954 0.3218 0.42936 0.57648 0.76937 0.73265 0.95064 0.29254 0.33532 1.3719 1.4319 3.0037 1.4328h8.605e-4c1.0364 0 2.0564-0.44639 3.0317-1.3264 0.57046-0.51532 0.94862-1.1604 1.1525-1.8868l0.014627 0.01617 0.0098949-0.10043c0.19532-0.76128 0.19101-1.6094-0.025813-2.5098-0.04044-0.18724-0.089914-0.37107-0.15057-0.55362-0.25727-0.7783-0.64747-1.4906-1.0248-2.1796l-0.20951-0.38511c-0.41989-0.78128-0.85182-1.6255-1.1732-2.5-0.34159-0.92511-0.50507-1.7532-0.49948-2.5307 0.0055928-0.77745 0.20564-1.5694 0.5924-2.3519 0.71329-1.4464 1.8232-2.5719 2.999-3.7651 0.89226-0.90469 1.8129-1.8387 2.5374-2.9196 0.0038719-0.0072341 0.0064532-0.012766 0.010755-0.019575 0.0012906-0.0025532 0.0043021-0.0038298 0.0051625-0.006383 0.052056-0.078298 0.10325-0.15617 0.15272-0.23532l0.43795-0.70043-0.044312 0.0080852c0.002151-0.005532 0.0064532-0.010213 0.0090344-0.01617" fill="#fff" mask="url(#c)"/>
</g>
</g>
</g>
</g>
</g>
</svg>
